<svg version="1.1" xmlns="http://www.w3.org/2000/svg" xmlns:xlink="http://www.w3.org/1999/xlink" width="35" height="31"><defs/><g><path fill="rgb(102,109,137)" stroke="none" paint-order="stroke fill markers" fill-rule="evenodd" d=" M 17.000007152557373 5.999985694885254 C 11.037123918533325 5.999985694885254 5.999992609024048 9.206203937530518 5.999992609024048 13.000169277191162 C 5.999992609024048 13.27648401260376 6.223603010177612 13.500017166137695 6.499984979629517 13.500017166137695 C 6.77630615234375 13.500017166137695 7.000038146972656 13.27648401260376 7.000038146972656 13.000169277191162 C 7.000038146972656 9.803834438323975 11.67281460762024 7.0001020431518555 17.000007152557373 7.0001020431518555 C 17.276328325271606 7.0001020431518555 17.499999523162842 6.77656888961792 17.499999523162842 6.500043869018555 C 17.499999523162842 6.223729133605957 17.276328325271606 5.999985694885254 17.000007152557373 5.999985694885254 Z M 17.000007152557373 1.0002450942993164 C 8.163018941879272 1.0002450942993164 1.0000081062316895 6.373241901397705 1.0000081062316895 13.000169277191162 C 1.0000081062316895 17.127016067504883 3.7793309688568115 20.765790939331055 8.007804870605469 22.925840377807617 C 8.007804870605469 22.953177452087402 8.000022888183594 22.97084140777588 8.000022888183594 23.000071048736572 C 8.000022888183594 24.792962551116943 6.661157131195068 26.722959995269775 6.072219133377075 27.736534595489502 C 6.0732526779174805 27.736534595489502 6.074225425720215 27.736534595489502 6.074225425720215 27.736534595489502 C 6.027351140975952 27.845882892608643 5.999992609024048 27.966796875 5.999992609024048 28.093809127807617 C 5.999992609024048 28.59470844268799 6.405202865600586 29.00013828277588 6.90622878074646 29.00013828277588 C 7.000038146972656 29.00013828277588 7.165040493011475 28.974693775177002 7.161149501800537 28.987521171569824 C 10.286162614822388 28.47568702697754 13.230427026748657 25.604663372039795 13.91402554512024 24.771723747253418 C 14.913037538528442 24.918082237243652 15.943359851837158 25.000093460083008 17.000007152557373 25.000093460083008 C 25.835901021957397 25.000093460083008 33.00006699562073 19.62709665298462 33.00006699562073 13.000169277191162 C 33.00006699562073 6.373241901397705 25.835901021957397 1.0002450942993164 17.000007152557373 1.0002450942993164 Z M 17.000007152557373 23.000071048736572 C 16.083009958267212 23.000071048736572 15.142545223236084 22.93067693710327 14.204147577285767 22.793150424957275 C 14.107419967651367 22.778430461883545 14.009719610214233 22.771491050720215 13.91402554512024 22.771491050720215 C 13.320345401763916 22.771491050720215 12.750923156738281 23.036240100860596 12.368146896362305 23.50286293029785 C 11.940441846847534 24.024370193481445 10.722622394561768 25.18577527999878 9.283198833465576 26.042056560516357 C 9.672845125198364 25.147713661193848 9.978531122207642 24.14381217956543 9.999019622802734 23.11047077178955 C 10.00479531288147 23.045913219451904 10.007835149765015 22.981565952301025 10.007835149765015 22.925840377807617 C 10.007835149765015 22.174911975860596 9.586939334869385 21.486227989196777 8.917932033538818 21.14472484588623 C 5.211945295333862 19.25194787979126 3.0000383853912354 16.20701837539673 3.0000383853912354 13.000169277191162 C 3.0000383853912354 7.486491680145264 9.280219793319702 3.0000572204589844 17.000007152557373 3.0000572204589844 C 24.719733715057373 3.0000572204589844 31.00003671646118 7.486491680145264 31.00003671646118 13.000169277191162 C 31.00003671646118 18.51384687423706 24.719733715057373 23.000071048736572 17.000007152557373 23.000071048736572 Z"/></g></svg>