<svg version="1.1" xmlns="http://www.w3.org/2000/svg" xmlns:xlink="http://www.w3.org/1999/xlink" width="26" height="35"><defs/><g><path fill="rgb(102,109,137)" stroke="none" paint-order="stroke fill markers" fill-rule="evenodd" d=" M 13.000007152557373 1.0000948905944824 C 6.924832344055176 1.0000948905944824 1.9999926090240479 5.924973964691162 1.9999926090240479 12.000113010406494 C 1.9999926090240479 16.031280040740967 5.688530683517456 20.30280303955078 7.03134822845459 24.054921627044678 C 9.034235954284668 29.651451587677002 8.812510251998901 33.000032901763916 13.000007152557373 33.000032901763916 C 17.2500638961792 33.000032901763916 16.964805603027344 29.666171550750732 18.96884846687317 24.07826328277588 C 20.316408157348633 20.31857442855835 24.0000216960907 16.000157833099365 24.0000216960907 12.000113010406494 C 24.0000216960907 5.924973964691162 19.07524275779724 1.0000948905944824 13.000007152557373 1.0000948905944824 Z M 15.592805624008179 28.175880432128906 C 15.592805624008179 28.175880432128906 10.633858919143677 28.796011447906494 10.633858919143677 28.796011447906494 C 10.457001209259033 28.28333616256714 10.26664662361145 27.683602809906006 10.036105394363403 26.90260362625122 C 10.033247947692871 26.892720222473145 10.029356956481934 26.88094425201416 10.027350664138794 26.87127113342285 C 10.027350664138794 26.87127113342285 16.215850591659546 26.0978422164917 16.215850591659546 26.0978422164917 C 16.127938508987427 26.39371347427368 16.033217191696167 26.704304695129395 15.952114343643188 26.98167085647583 C 15.821340560913086 27.430840015411377 15.703090906143188 27.821549892425537 15.592805624008179 28.175880432128906 Z M 9.736316680908203 25.90837526321411 C 9.55471682548523 25.30674934387207 9.349649429321289 24.67210865020752 9.121114492416382 24.00003719329834 C 9.121114492416382 24.00003719329834 16.88674259185791 24.00003719329834 16.88674259185791 24.00003719329834 C 16.764662742614746 24.3596248626709 16.64167094230652 24.718791961669922 16.535215854644775 25.058823108673096 C 16.535215854644775 25.058823108673096 9.736316680908203 25.90837526321411 9.736316680908203 25.90837526321411 Z M 13.000007152557373 31.000220775604248 C 11.987315893173218 31.000220775604248 11.52051854133606 30.883933067321777 11.00289511680603 29.750075340270996 C 11.00289511680603 29.750075340270996 15.241218090057373 29.219736099243164 15.241218090057373 29.219736099243164 C 14.62796139717102 30.87320852279663 14.180740594863892 31.000220775604248 13.000007152557373 31.000220775604248 Z M 17.671932458877563 22.000014781951904 C 17.671932458877563 22.000014781951904 8.338903665542603 22.000014781951904 8.338903665542603 22.000014781951904 C 7.8408567905426025 20.92104148864746 7.243224859237671 19.839965343475342 6.653314113616943 18.78328227996826 C 5.348616123199463 16.448485851287842 4.000022888183594 14.033360481262207 4.000022888183594 12.000113010406494 C 4.000022888183594 7.037172317504883 8.037108659744263 3.000117301940918 13.000007152557373 3.000117301940918 C 17.962905645370483 3.000117301940918 22.000052213668823 7.037172317504883 22.000052213668823 12.000113010406494 C 22.000052213668823 14.017589092254639 20.65042543411255 16.446382999420166 19.344693899154663 18.795058250427246 C 18.75982928276062 19.848587036132812 18.16700029373169 20.925878047943115 17.671932458877563 22.000014781951904 Z M 13.000007152557373 6.000256061553955 C 9.69144868850708 6.000256061553955 7.000037908554077 8.69148588180542 7.000037908554077 12.000113010406494 C 7.000037908554077 12.276427745819092 7.223648309707642 12.499960899353027 7.500030279159546 12.499960899353027 C 7.77641224861145 12.499960899353027 8.000022649765015 12.276427745819092 8.000022649765015 12.000113010406494 C 8.000022649765015 9.243274211883545 10.243239879608154 7.000162124633789 13.000007152557373 7.000162124633789 C 13.276389122009277 7.000162124633789 13.499999523162842 6.7766289710998535 13.499999523162842 6.500103950500488 C 13.499999523162842 6.223578929901123 13.276389122009277 6.000256061553955 13.000007152557373 6.000256061553955 Z"/></g></svg>