<svg version="1.1" xmlns="http://www.w3.org/2000/svg" xmlns:xlink="http://www.w3.org/1999/xlink" width="36" height="32"><defs/><g><path fill="rgb(102,109,137)" stroke="none" paint-order="stroke fill markers" fill-rule="evenodd" d=" M 31.192089796066284 4.792400360107422 C 27.562342166900635 1.2007293701171875 21.760509490966797 1.125657558441162 17.999805688858032 4.504730224609375 C 14.240013837814331 1.125657558441162 8.439214706420898 1.2007293701171875 4.808311939239502 4.792400360107422 C 1.0671238899230957 8.492368221282959 1.0671238899230957 14.490542888641357 4.808311939239502 18.191562175750732 C 5.8777265548706055 19.248876094818115 15.861158847808838 29.121765613555908 15.861158847808838 29.121765613555908 C 17.043716192245483 30.29116153717041 18.956807136535645 30.29116153717041 20.13942527770996 29.121765613555908 C 20.13942527770996 29.121765613555908 31.071043491363525 18.311424732208252 31.192089796066284 18.191562175750732 C 34.93333864212036 14.490542888641357 34.93333864212036 8.492368221282959 31.192089796066284 4.792400360107422 Z M 29.76543354988098 16.78096914291382 C 29.76543354988098 16.78096914291382 18.712647438049316 27.711172580718994 18.712647438049316 27.711172580718994 C 18.320143699645996 28.10041046142578 17.67946767807007 28.10041046142578 17.28781509399414 27.711172580718994 C 17.28781509399414 27.711172580718994 6.2350897789001465 16.78096914291382 6.2350897789001465 16.78096914291382 C 3.2849280834198 13.86431360244751 3.2849280834198 9.118597507476807 6.2350897789001465 6.201941967010498 C 9.078917980194092 3.389587879180908 13.651136636734009 3.2911744117736816 16.64434242248535 5.980511665344238 C 16.64434242248535 5.980511665344238 17.999805688858032 7.198904037475586 17.999805688858032 7.198904037475586 C 17.999805688858032 7.198904037475586 19.356241703033447 5.980511665344238 19.356241703033447 5.980511665344238 C 22.34944748878479 3.2911744117736816 26.92263889312744 3.389587879180908 29.76543354988098 6.201941967010498 C 32.71559524536133 9.118597507476807 32.71559524536133 13.86431360244751 29.76543354988098 16.78096914291382 Z M 11.251732587814331 7.026259899139404 C 11.249847888946533 7.026259899139404 11.249847888946533 7.027311325073242 11.247841596603394 7.027311325073242 C 8.903154611587524 7.02920389175415 7.001736640930176 8.928499698638916 7.001736640930176 11.271497249603271 C 7.001736640930176 11.271497249603271 7.001736640930176 11.271497249603271 7.001736640930176 11.271497249603271 C 7.001736640930176 11.547391414642334 7.22534704208374 11.77092456817627 7.5017290115356445 11.77092456817627 C 7.778110980987549 11.77092456817627 8.001721382141113 11.547391414642334 8.001721382141113 11.271497249603271 C 8.001721382141113 11.271497249603271 8.001721382141113 11.270445823669434 8.001721382141113 11.270445823669434 C 8.001721382141113 9.4786057472229 9.456830501556396 8.0251145362854 11.250759840011597 8.0251145362854 C 11.250759840011597 8.0251145362854 11.251732587814331 8.0251145362854 11.251732587814331 8.0251145362854 C 11.528114557266235 8.0251145362854 11.7517249584198 7.801791667938232 11.7517249584198 7.525687217712402 C 11.7517249584198 7.249582767486572 11.528114557266235 7.026259899139404 11.251732587814331 7.026259899139404 Z"/></g></svg>