<svg version="1.1" xmlns="http://www.w3.org/2000/svg" xmlns:xlink="http://www.w3.org/1999/xlink" width="35" height="35"><defs/><g><path fill="rgb(102,109,137)" stroke="none" paint-order="stroke fill markers" fill-rule="evenodd" d=" M 30.395538568496704 3.5802001953125 C 28.750014066696167 1.9376626014709473 26.585042238235474 1.0000009536743164 24.44919204711914 1.0000009536743164 C 22.649426221847534 1.0000009536743164 20.990222454071045 1.668076992034912 19.780306577682495 2.8770065307617188 C 19.780306577682495 2.8770065307617188 14.913102149963379 7.781277656555176 14.913102149963379 7.781277656555176 C 14.898389339447021 7.794946193695068 14.880940675735474 7.8048295974731445 14.866227865219116 7.819339275360107 C 14.858445882797241 7.827330112457275 14.853521347045898 7.837844371795654 14.845739364624023 7.845835208892822 C 14.845739364624023 7.845835208892822 14.847745656967163 7.8477277755737305 14.847745656967163 7.8477277755737305 C 14.847745656967163 7.8477277755737305 4.517589569091797 18.256003379821777 4.517589569091797 18.256003379821777 C 4.042037487030029 18.728514194488525 3.696347236633301 19.31857442855835 3.5048983097076416 19.9609956741333 C 3.5048983097076416 19.9609956741333 1.156320333480835 28.468924045562744 1.156320333480835 28.468924045562744 C 1.153341293334961 28.492265701293945 1.000011920928955 29.16118288040161 1.000011920928955 29.49995231628418 C 1.000011920928955 31.43268346786499 2.5692973136901855 33.00014925003052 4.50494384765625 33.00014925003052 C 4.889604806900024 33.00014925003052 5.6348512172698975 32.81657028198242 5.66208815574646 32.81257486343384 C 5.66208815574646 32.81257486343384 14.139646053314209 30.583972454071045 14.139646053314209 30.583972454071045 C 14.78324031829834 30.39261293411255 15.369138479232788 30.045011520385742 15.844690561294556 29.56850528717041 C 15.844690561294556 29.56850528717041 31.107407569885254 14.185723304748535 31.107407569885254 14.185723304748535 C 33.88381218910217 11.406383991241455 33.571316957473755 6.750039100646973 30.395538568496704 3.5802001953125 Z M 17.014602184295654 24.795872688293457 C 16.932648181915283 23.89269781112671 16.677727460861206 23.00781774520874 16.295923948287964 22.1681489944458 C 16.295923948287964 22.1681489944458 25.750059843063354 12.714988708496094 25.750059843063354 12.714988708496094 C 26.328115224838257 14.541105270385742 26.032217502593994 16.451335906982422 24.76460552215576 17.718935012817383 C 24.756823539733887 17.726715564727783 24.747156858444214 17.731552124023438 24.739314079284668 17.739332675933838 C 24.739314079284668 17.739332675933838 24.752020597457886 17.75216007232666 24.752020597457886 17.75216007232666 C 24.752020597457886 17.75216007232666 17.02439045906067 25.541123390197754 17.02439045906067 25.541123390197754 C 17.025424003601074 25.29319715499878 17.037157773971558 25.048845767974854 17.014602184295654 24.795872688293457 Z M 15.793925285339355 21.255931854248047 C 15.420937299728394 20.64274024963379 14.99712324142456 20.052049160003662 14.471717834472656 19.527597904205322 C 13.860467433929443 18.916088581085205 13.1592378616333 18.438530921936035 12.42773151397705 18.035414218902588 C 12.42773151397705 18.035414218902588 21.960052013397217 8.504027843475342 21.960052013397217 8.504027843475342 C 22.707000732421875 8.836068153381348 23.424827814102173 9.308789253234863 24.057600259780884 9.941537380218506 C 24.597718477249146 10.480708599090576 25.016607999801636 11.084016799926758 25.337918758392334 11.711928367614746 C 25.337918758392334 11.711928367614746 15.793925285339355 21.255931854248047 15.793925285339355 21.255931854248047 Z M 11.48635482788086 17.562693119049072 C 10.560542106628418 17.18964719772339 9.589800596237183 16.9768385887146 8.618207931518555 16.964011192321777 C 8.618207931518555 16.964011192321777 16.3213369846344 9.202384948730469 16.3213369846344 9.202384948730469 C 17.500003337860107 8.051914691925049 19.217815160751343 7.720715522766113 20.909241199493408 8.140655040740967 C 20.909241199493408 8.140655040740967 11.48635482788086 17.562693119049072 11.48635482788086 17.562693119049072 Z M 5.168053865432739 30.873114585876465 C 5.058619737625122 30.898559093475342 4.719738721847534 30.98456573486328 4.489319086074829 31.000126838684082 C 3.6670432090759277 30.991294860839844 3.000042200088501 30.322377681732178 3.000042200088501 29.49995231628418 C 3.0117151737213135 29.332985877990723 3.07913875579834 29.04405403137207 3.1016335487365723 28.937439441680908 C 3.1016335487365723 28.937439441680908 4.154329061508179 25.12307643890381 4.154329061508179 25.12307643890381 C 5.296942949295044 25.091954231262207 6.5273473262786865 25.53712797164917 7.4941370487213135 26.50612211227417 C 8.476612329483032 27.487523078918457 8.938545942306519 28.741243362426758 8.887719869613647 29.896550178527832 C 8.887719869613647 29.896550178527832 5.168053865432739 30.873114585876465 5.168053865432739 30.873114585876465 Z M 9.874025344848633 29.636847972869873 C 9.849645853042603 28.296069622039795 9.303691148757935 26.89956569671631 8.202115058898926 25.799984455108643 C 7.160241365432739 24.755918502807617 5.796935319900513 24.154502868652344 4.436547517776489 24.100669860839844 C 4.436547517776489 24.100669860839844 5.432641267776489 20.49343776702881 5.432641267776489 20.49343776702881 C 5.5049285888671875 20.2528715133667 5.647496938705444 20.01672124862671 5.823260307312012 19.808749198913574 C 7.829127073287964 18.373342514038086 10.914135932922363 18.797067165374756 13.05764651298523 20.941555500030518 C 15.324209690093994 23.208009243011475 15.674824476242065 26.527571201324463 13.928742170333862 28.509929656982422 C 13.812559604644775 28.570281505584717 13.695343494415283 28.62895107269287 13.56931185722351 28.66722297668457 C 13.56931185722351 28.66722297668457 9.874025344848633 29.636847972869873 9.874025344848633 29.636847972869873 Z M 29.692424297332764 12.77260684967041 C 29.692424297332764 12.77260684967041 28.00780749320984 14.469818592071533 28.00780749320984 14.469818592071533 C 28.00780749320984 14.24439287185669 28.035226821899414 14.026537418365479 28.01461672782898 13.796064853668213 C 27.838914155960083 11.861441135406494 26.935535430908203 9.990323543548584 25.47173237800598 8.527369499206543 C 23.84286618232727 6.8976593017578125 21.681602954864502 5.96189022064209 19.54301691055298 5.956212520599365 C 19.54301691055298 5.956212520599365 21.200214385986328 4.28612756729126 21.200214385986328 4.28612756729126 C 22.0273540019989 3.459075927734375 23.18364715576172 3.000023365020752 24.44919204711914 3.000023365020752 C 26.05963683128357 3.000023365020752 27.711909770965576 3.7276101112365723 28.98243999481201 4.995209217071533 C 30.175819158554077 6.186474800109863 30.887748956680298 7.666041374206543 30.988306760787964 9.163061618804932 C 31.08205533027649 10.560827255249023 30.622128009796143 11.84188461303711 29.692424297332764 12.77260684967041 Z"/></g></svg>