<svg version="1.1" xmlns="http://www.w3.org/2000/svg" xmlns:xlink="http://www.w3.org/1999/xlink" width="26" height="36"><defs/><g><path fill="rgb(102,109,137)" stroke="none" paint-order="stroke fill markers" fill-rule="evenodd" d=" M 21.00001049041748 1.9995918273925781 C 21.00001049041748 1.9995918273925781 5.000011444091797 2.0004329681396484 5.000011444091797 2.0004329681396484 C 3.3428139686584473 2.0004329681396484 1.9999964237213135 3.3433141708374023 1.9999964237213135 5.0005717277526855 C 1.9999964237213135 5.0005717277526855 1.9999964237213135 31.00065279006958 1.9999964237213135 31.00065279006958 C 1.9999964237213135 32.657700061798096 3.3428139686584473 34.00058126449585 5.000011444091797 34.00058126449585 C 5.000011444091797 34.00058126449585 21.00001049041748 33.99952983856201 21.00001049041748 33.99952983856201 C 22.65720796585083 33.99952983856201 24.000025510787964 32.656858921051025 24.000025510787964 30.999601364135742 C 24.000025510787964 30.999601364135742 24.000025510787964 4.999730587005615 24.000025510787964 4.999730587005615 C 24.000025510787964 3.342473030090332 22.65720796585083 1.9995918273925781 21.00001049041748 1.9995918273925781 Z M 22.00005602836609 30.999601364135742 C 22.00005602836609 31.551389694213867 21.551862478256226 31.999507427215576 21.00001049041748 31.999507427215576 C 21.00001049041748 31.999507427215576 5.000011444091797 32.000558853149414 5.000011444091797 32.000558853149414 C 4.448220252990723 32.000558853149414 4.000026702880859 31.552230834960938 4.000026702880859 31.00065279006958 C 4.000026702880859 31.00065279006958 4.000026702880859 28.99663496017456 4.000026702880859 28.99663496017456 C 4.000026702880859 28.99663496017456 22.00005602836609 28.995583534240723 22.00005602836609 28.995583534240723 C 22.00005602836609 28.995583534240723 22.00005602836609 30.999601364135742 22.00005602836609 30.999601364135742 Z M 22.00005602836609 27.99567747116089 C 22.00005602836609 27.99567747116089 4.000026702880859 27.996728897094727 4.000026702880859 27.996728897094727 C 4.000026702880859 27.996728897094727 4.000026702880859 8.000500202178955 4.000026702880859 8.000500202178955 C 4.000026702880859 8.000500202178955 22.00005602836609 7.999659061431885 22.00005602836609 7.999659061431885 C 22.00005602836609 7.999659061431885 22.00005602836609 27.99567747116089 22.00005602836609 27.99567747116089 Z M 22.00005602836609 6.999542713165283 C 22.00005602836609 6.999542713165283 4.000026702880859 7.000594139099121 4.000026702880859 7.000594139099121 C 4.000026702880859 7.000594139099121 4.000026702880859 5.0005717277526855 4.000026702880859 5.0005717277526855 C 4.000026702880859 4.4487833976745605 4.448220252990723 4.000665664672852 5.000011444091797 4.000665664672852 C 5.000011444091797 4.000665664672852 21.00001049041748 3.9996142387390137 21.00001049041748 3.9996142387390137 C 21.551862478256226 3.9996142387390137 22.00005602836609 4.44794225692749 22.00005602836609 4.999730587005615 C 22.00005602836609 4.999730587005615 22.00005602836609 6.999542713165283 22.00005602836609 6.999542713165283 Z M 15.000041246414185 5.499578475952148 C 15.000041246414185 5.776103496551514 14.77643084526062 5.999636650085449 14.500048875808716 5.999636650085449 C 14.500048875808716 5.999636650085449 11.500033855438232 5.999636650085449 11.500033855438232 5.999636650085449 C 11.223651885986328 5.999636650085449 11.000041484832764 5.776103496551514 11.000041484832764 5.499578475952148 C 11.000041484832764 5.499578475952148 11.000041484832764 5.499578475952148 11.000041484832764 5.499578475952148 C 11.000041484832764 5.223263740539551 11.223651885986328 4.999730587005615 11.500033855438232 4.999730587005615 C 11.500033855438232 4.999730587005615 14.500048875808716 4.999730587005615 14.500048875808716 4.999730587005615 C 14.77643084526062 4.999730587005615 15.000041246414185 5.223263740539551 15.000041246414185 5.499578475952148 C 15.000041246414185 5.499578475952148 15.000041246414185 5.499578475952148 15.000041246414185 5.499578475952148 Z M 13.999995708465576 30.495758056640625 C 13.999995708465576 30.772072792053223 13.776446104049683 30.995816230773926 13.500003337860107 30.995816230773926 C 13.500003337860107 30.995816230773926 12.50001859664917 30.995816230773926 12.50001859664917 30.995816230773926 C 12.223636627197266 30.995816230773926 12.000026226043701 30.772072792053223 12.000026226043701 30.495758056640625 C 12.000026226043701 30.495758056640625 12.000026226043701 30.495758056640625 12.000026226043701 30.495758056640625 C 12.000026226043701 30.219443321228027 12.223636627197266 29.995699882507324 12.50001859664917 29.995699882507324 C 12.50001859664917 29.995699882507324 13.500003337860107 29.995699882507324 13.500003337860107 29.995699882507324 C 13.776446104049683 29.995699882507324 13.999995708465576 30.219443321228027 13.999995708465576 30.495758056640625 C 13.999995708465576 30.495758056640625 13.999995708465576 30.495758056640625 13.999995708465576 30.495758056640625 Z"/></g></svg>