<svg version="1.1" xmlns="http://www.w3.org/2000/svg" xmlns:xlink="http://www.w3.org/1999/xlink" width="36" height="34"><defs/><g><path fill="rgb(102,109,137)" stroke="none" paint-order="stroke fill markers" fill-rule="evenodd" d=" M 33.880643129348755 12.556865692138672 C 33.60426115989685 11.757992267608643 32.893364906311035 11.17297887802124 32.03789401054382 11.045966625213623 C 32.03789401054382 11.045966625213623 23.71165919303894 9.807597160339355 23.71165919303894 9.807597160339355 C 23.71165919303894 9.807597160339355 20.091578245162964 2.294107437133789 20.091578245162964 2.294107437133789 C 19.71165943145752 1.505117416381836 18.89625358581543 1.0000123977661133 17.999805688858032 1.0000123977661133 C 17.1042697429657 1.0000123977661133 16.28886389732361 1.505117416381836 15.90797233581543 2.294107437133789 C 15.90797233581543 2.294107437133789 12.288864135742188 9.807597160339355 12.288864135742188 9.807597160339355 C 12.288864135742188 9.807597160339355 3.9616565704345703 11.045966625213623 3.9616565704345703 11.045966625213623 C 3.1061856746673584 11.17297887802124 2.395289421081543 11.757992267608643 2.119880199432373 12.556865692138672 C 1.8444709777832031 13.357421398162842 2.0524566173553467 14.239357471466064 2.65695858001709 14.841824531555176 C 2.65695858001709 14.841824531555176 8.758579969406128 20.934627532958984 8.758579969406128 20.934627532958984 C 8.758579969406128 20.934627532958984 7.343596696853638 29.38598918914795 7.343596696853638 29.38598918914795 C 7.199994802474976 30.236382484436035 7.569091796875 31.090981483459473 8.29178261756897 31.589147090911865 C 8.689271688461304 31.86146640777588 9.156069040298462 32.00004434585571 9.622744798660278 32.00004434585571 C 10.00655460357666 32.00004434585571 10.391397953033447 31.90646743774414 10.740979194641113 31.71973419189453 C 10.740979194641113 31.71973419189453 17.999805688858032 27.811583995819092 17.999805688858032 27.811583995819092 C 17.999805688858032 27.811583995819092 25.259544134140015 31.71973419189453 25.259544134140015 31.71973419189453 C 25.60918617248535 31.90646743774414 25.993907928466797 32.00004434585571 26.376744985580444 32.00004434585571 C 26.844454288482666 32.00004434585571 27.31027889251709 31.86146640777588 27.70880150794983 31.589147090911865 C 28.431370735168457 31.090981483459473 28.799555778503418 30.236382484436035 28.65698742866516 29.38598918914795 C 28.65698742866516 29.38598918914795 27.240970611572266 20.934627532958984 27.240970611572266 20.934627532958984 C 27.240970611572266 20.934627532958984 33.34356474876404 14.841824531555176 33.34356474876404 14.841824531555176 C 33.94794511795044 14.239357471466064 34.15507960319519 13.357421398162842 33.880643129348755 12.556865692138672 Z M 25.587724924087524 19.36337661743164 C 25.075998783111572 19.874159336090088 24.843572854995728 20.591862678527832 24.961640119552612 21.29694890975952 C 24.961640119552612 21.29694890975952 26.376744985580444 29.749151706695557 26.376744985580444 29.749151706695557 C 26.376744985580444 29.749151706695557 19.117979288101196 25.841842651367188 19.117979288101196 25.841842651367188 C 18.769249200820923 25.654268264770508 18.38458824157715 25.560691356658936 17.999805688858032 25.560691356658936 C 17.61599588394165 25.560691356658936 17.231152534484863 25.654268264770508 16.88254404067993 25.841842651367188 C 16.88254404067993 25.841842651367188 9.622744798660278 29.749151706695557 9.622744798660278 29.749151706695557 C 9.622744798660278 29.749151706695557 11.038883209228516 21.29694890975952 11.038883209228516 21.29694890975952 C 11.1569504737854 20.591862678527832 10.924585342407227 19.874159336090088 10.412859201431274 19.36337661743164 C 10.412859201431274 19.36337661743164 4.311298608779907 13.27162504196167 4.311298608779907 13.27162504196167 C 4.311298608779907 13.27162504196167 12.63747262954712 12.031363010406494 12.63747262954712 12.031363010406494 C 13.3981614112854 11.918229579925537 14.053489446640015 11.442564487457275 14.38069748878479 10.763763904571533 C 14.38069748878479 10.763763904571533 17.999805688858032 3.251115322113037 17.999805688858032 3.251115322113037 C 17.999805688858032 3.251115322113037 21.61988663673401 10.763763904571533 21.61988663673401 10.763763904571533 C 21.947094678878784 11.442564487457275 22.601389169692993 11.918229579925537 23.362077951431274 12.031363010406494 C 23.362077951431274 12.031363010406494 31.68928551673889 13.27162504196167 31.68928551673889 13.27162504196167 C 31.68928551673889 13.27162504196167 25.587724924087524 19.36337661743164 25.587724924087524 19.36337661743164 Z"/></g></svg>